<?xml version="1.0" encoding="UTF-8"?>
<!DOCTYPE svg PUBLIC "-//W3C//DTD SVG 1.1//EN" "http://www.w3.org/Graphics/SVG/1.1/DTD/svg11.dtd">
<svg version="1.1" xmlns="http://www.w3.org/2000/svg" xmlns:xlink="http://www.w3.org/1999/xlink" x="0" y="0" width="35" height="28" viewBox="0, 0, 35, 28">
  <g id="icons" transform="translate(0, 0)">
    <path d="M13.5,1.5 L8.5,6.5 L13.5,11.5" fill-opacity="0" stroke="#409CF7" stroke-width="1.2"/>
    <path d="M27.5,1.5 L22.5,6.5 L27.5,11.5" fill-opacity="0" stroke="#48BCFF" stroke-width="1.2"/>
    <path d="M1.5,1.5 L6.5,6.5 L1.5,11.5" fill-opacity="0" stroke="#808080" stroke-width="1.2"/>
    <path d="M29.5,1.5 L34.5,6.5 L29.5,11.5" fill-opacity="0" stroke="#48BCFF" stroke-width="1.2"/>
    <path d="M15.5,1.5 L20.5,6.5 L15.5,11.5" fill-opacity="0" stroke="#409CF7" stroke-width="1.2"/>
    <g>
      <path d="M6.4,12 C9.935,12 12.8,14.865 12.8,18.4 C12.8,21.935 9.935,24.8 6.4,24.8 C2.865,24.8 0,21.935 0,18.4 C0,14.865 2.865,12 6.4,12 z M6.4,13.6 C3.749,13.6 1.6,15.749 1.6,18.4 C1.6,21.051 3.749,23.2 6.4,23.2 C9.051,23.2 11.2,21.051 11.2,18.4 C11.2,15.749 9.051,13.6 6.4,13.6 z" fill="#E7E7E7"/>
      <path d="M15.7,27.7 L10.9,22.9" fill-opacity="0" stroke="#E7E7E7" stroke-width="1.6"/>
    </g>
    <g>
      <path d="M22.4,12 C25.935,12 28.8,14.865 28.8,18.4 C28.8,21.935 25.935,24.8 22.4,24.8 C18.865,24.8 16,21.935 16,18.4 C16,14.865 18.865,12 22.4,12 z M22.4,13.6 C19.749,13.6 17.6,15.749 17.6,18.4 C17.6,21.051 19.749,23.2 22.4,23.2 C25.051,23.2 27.2,21.051 27.2,18.4 C27.2,15.749 25.051,13.6 22.4,13.6 z" fill="#CCCCCC"/>
      <path d="M31.7,27.7 L26.9,22.9" fill-opacity="0" stroke="#CCCCCC" stroke-width="1.6"/>
    </g>
  </g>
</svg>
