<?xml version="1.0" encoding="UTF-8"?>
<!DOCTYPE svg PUBLIC "-//W3C//DTD SVG 1.1//EN" "http://www.w3.org/Graphics/SVG/1.1/DTD/svg11.dtd">
<svg version="1.1" xmlns="http://www.w3.org/2000/svg" xmlns:xlink="http://www.w3.org/1999/xlink" x="0" y="0" width="16" height="16" viewBox="0, 0, 16, 16">
  <g id="search" transform="translate(0, 0)">
    <g>
      <path d="M6.4,0 C9.935,0 12.8,2.865 12.8,6.4 C12.8,9.935 9.935,12.8 6.4,12.8 C2.865,12.8 0,9.935 0,6.4 C0,2.865 2.865,0 6.4,0 z M6.4,1.6 C3.749,1.6 1.6,3.749 1.6,6.4 C1.6,9.051 3.749,11.2 6.4,11.2 C9.051,11.2 11.2,9.051 11.2,6.4 C11.2,3.749 9.051,1.6 6.4,1.6 z" fill="#ACACAC"/>
      <path d="M15.7,15.7 L10.9,10.9" fill-opacity="0" stroke="#ACACAC" stroke-width="1.6"/>
    </g>
  </g>
</svg>
